<svg width="84" height="91" viewBox="0 0 84 91" fill="none" xmlns="http://www.w3.org/2000/svg">
<path d="M19.3708 63.226C22.3821 60.6935 24.102 54.6161 24.102 54.6161C24.102 54.6161 22.3029 39.2824 27.0548 33.2486C33.0915 25.5834 41.3574 21.6052 51.1986 27.8349C59.9573 33.3794 59.112 45.1837 54.3607 51.5844C48.6448 59.2845 43.628 59.3297 35.5173 62.216C32.5919 65.4209 31.1154 67.0603 29.9941 70.5375C28.9726 73.7053 16.0312 66.0347 19.3708 63.226Z" fill="white" stroke="#111111" stroke-width="1.091" stroke-linecap="round"/>
<path d="M22.7336 65.6736C28.4903 56.6272 37.6054 38.1676 32.5055 37.1132C29.5913 36.5107 32.9117 42.3881 37.1112 45.721C39.9998 48.0135 49.0733 50.8148 47.6791 47.3947C46.2849 43.9747 36.1749 49.3414 26.4619 67.5377" stroke="#FF9900" stroke-width="2.18201" stroke-linecap="round" stroke-linejoin="round"/>
<path d="M27.0113 75.652C27.0113 75.652 20.3335 76.0449 15.437 68.5244" stroke="black" stroke-width="2.18201" stroke-linecap="round" stroke-linejoin="round"/>
<path d="M29.776 71.5057C29.776 71.5057 23.1448 71.687 18.0719 64.6383" stroke="black" stroke-width="2.18201" stroke-linecap="round" stroke-linejoin="round"/>
<path d="M23.1803 79.3689C23.1803 79.3689 17.478 78.445 13.8368 73.611" stroke="black" stroke-width="2.18201" stroke-linecap="round" stroke-linejoin="round"/>
<path d="M51.2098 62.4346L61.3744 76.8536" stroke="#FFB800" stroke-width="3.43714" stroke-linecap="round" stroke-linejoin="round"/>
<path d="M58.7299 54.132L67.9945 59.5307" stroke="#FFB800" stroke-width="3.43714" stroke-linecap="round" stroke-linejoin="round"/>
<path d="M62.5428 43.6126L79.2047 44.5518" stroke="#FFB800" stroke-width="3.43714" stroke-linecap="round" stroke-linejoin="round"/>
<path d="M28.278 6.18648L33.9206 21.5679" stroke="#FFB800" stroke-width="3.43714" stroke-linecap="round" stroke-linejoin="round"/>
<path d="M2.56971 30.8637L18.9225 37.5679" stroke="#FFB800" stroke-width="3.43714" stroke-linecap="round" stroke-linejoin="round"/>
<path d="M62.4756 30.666L72.7959 26.586" stroke="#FFB800" stroke-width="3.43714" stroke-linecap="round" stroke-linejoin="round"/>
<path d="M44.574 19.0756L45.4643 8.1768" stroke="#FFB800" stroke-width="3.43714" stroke-linecap="round" stroke-linejoin="round"/>
<path d="M25.3828 27.7614C21.8935 24.698 19.9373 22.9805 16.4481 19.9171" stroke="#FFB800" stroke-width="3.43714" stroke-linecap="round" stroke-linejoin="round"/>
<path d="M55.0105 22.1791L65.6764 8.70295" stroke="#FFB800" stroke-width="3.43714" stroke-linecap="round" stroke-linejoin="round"/>
</svg>
