<svg width="40" height="60" viewBox="0 0 40 60" fill="none" xmlns="http://www.w3.org/2000/svg">
<path d="M37.1587 46.5948C36.3325 45.841 35.4598 45.153 34.5533 44.5218C34.939 43.2046 35.1351 41.8415 35.1351 40.4601V33.2427C36.3726 32.2047 37.4306 30.9804 38.2707 29.6166V40.4601C38.2707 42.6146 37.8778 44.6809 37.1587 46.5948ZM31.7792 54.0907C28.7501 50.8684 24.5043 49.0359 20.0001 49.0359C15.4962 49.0359 11.2509 50.8684 8.2205 54.0903C7.4865 53.4838 6.8031 52.8211 6.1746 52.1102C9.7443 48.3506 14.7391 46.2046 20.0001 46.2046C25.2603 46.2046 30.2553 48.351 33.8249 52.1109C33.1965 52.8218 32.5134 53.4841 31.7792 54.0907ZM13.9734 57.3079C15.6792 55.9725 17.7751 55.2473 20.0001 55.2473C22.2254 55.2473 24.3209 55.9725 26.0264 57.3082C24.1383 57.9546 22.1112 58.3105 20.0001 58.3105C17.8886 58.3105 15.8618 57.9546 13.9734 57.3079ZM19.1354 53.5922C16.5217 53.7818 14.0969 54.8243 12.1829 56.5905C11.2786 56.1705 10.4158 55.6785 9.6001 55.1247C12.0985 52.5245 15.4945 50.966 19.1354 50.7525V53.5922ZM20.8647 50.7525C24.506 50.966 27.9017 52.5245 30.3995 55.1247C29.584 55.6788 28.7217 56.1705 27.8173 56.5905C25.9033 54.8243 23.4788 53.7815 20.8647 53.5922V50.7525ZM1.7293 29.6166C2.5694 30.9804 3.6277 32.205 4.8651 33.2431V40.4601C4.8651 41.8428 5.061 43.206 5.4464 44.5218C4.5399 45.153 3.6674 45.841 2.8412 46.5948C2.1222 44.6809 1.7293 42.6146 1.7293 40.4601V29.6166ZM10.1302 4.52999L11.699 7.1846C10.7083 7.82223 9.799 8.57037 8.9886 9.41108L6.5829 7.43938C7.6328 6.32969 8.8249 5.35178 10.1302 4.52999ZM22.3156 1.83788L21.7709 4.85777C21.1895 4.79086 20.5991 4.75301 20.0001 4.75301C19.4003 4.75301 18.8093 4.7912 18.2272 4.85811L17.6824 1.83788C18.442 1.7436 19.2143 1.68954 20.0001 1.68954C20.7852 1.68954 21.5568 1.7436 22.3156 1.83788ZM33.4158 7.43803L31.0106 9.41007C30.1996 8.56969 29.2907 7.82122 28.2998 7.18358L29.8683 4.52898C31.1739 5.35111 32.3661 6.32834 33.4158 7.43803ZM31.3752 33.6938C29.4501 34.6562 27.3853 35.1438 25.2382 35.1438C24.2438 35.1438 23.2612 35.0357 22.2983 34.8262L37.6246 27.1651C36.3881 29.9667 34.1867 32.2881 31.3752 33.6938ZM33.0312 43.5371C29.3844 41.3715 25.2264 40.1574 20.8647 40.0151V36.2055C22.2845 36.6208 23.7503 36.8333 25.2382 36.8333C27.6616 36.8333 29.9917 36.2836 32.1627 35.1982C32.5906 34.9843 33.0039 34.7485 33.4058 34.4981V40.4601C33.4058 41.5029 33.2795 42.5339 33.0312 43.5371ZM17.7015 34.8258C16.7382 35.0357 15.7553 35.1438 14.7609 35.1438C12.6141 35.1438 10.5499 34.6562 8.625 33.6938C5.8136 32.2888 3.6124 29.9671 2.3755 27.1644L17.7015 34.8258ZM4.8651 20.386V23.7043C3.8019 23.7884 2.7534 23.981 1.7293 24.2807V20.386H4.8651ZM5.5061 15.2863C5.1704 16.3757 4.9597 17.5175 4.8916 18.6965H1.7514C1.8253 17.1505 2.0995 15.6556 2.5525 14.2361L5.5061 15.2863ZM6.0986 13.6988L3.1469 12.6489C3.7511 11.2432 4.5365 9.92943 5.4712 8.7329L7.8733 10.7019C7.1676 11.6237 6.5711 12.6293 6.0986 13.6988ZM33.9007 13.6978C33.4282 12.6283 32.8323 11.6227 32.1264 10.7016L34.5281 8.73188C35.463 9.92842 36.2481 11.2419 36.853 12.6476L33.9007 13.6978ZM35.1088 18.6951C35.0403 17.5161 34.8293 16.375 34.4935 15.2853L37.4468 14.2347C37.9003 15.6543 38.1749 17.1495 38.2489 18.6951H35.1088ZM35.1351 23.7043V20.3847H38.2707V24.2811C37.2466 23.9813 36.1983 23.7887 35.1351 23.7043ZM27.7602 26.7921C29.685 25.8297 31.7494 25.3421 33.8958 25.3421C34.8909 25.3421 35.8742 25.4502 36.8385 25.6604L21.5105 33.3218C22.7466 30.5192 24.9483 28.1974 27.7602 26.7921ZM19.1354 30.232C17.1446 27.8798 16.0313 24.9079 16.0313 21.8221C16.0313 18.7363 17.1446 15.7644 19.1354 13.4123V30.232ZM20.8647 30.232V13.4126C22.8555 15.7644 23.9682 18.7363 23.9682 21.8221C23.9682 24.9079 22.8555 27.8798 20.8647 30.232ZM6.103 25.3421C8.2501 25.3421 10.3148 25.8297 12.2396 26.7921C15.0511 28.1974 17.2529 30.5192 18.4897 33.3218L3.1622 25.6597C4.1254 25.4502 5.1087 25.3421 6.103 25.3421ZM23.4739 5.15073L24.019 2.12983C25.5515 2.46741 27.0111 2.99319 28.3724 3.68185L26.8032 6.33712C25.757 5.82046 24.6416 5.41971 23.4739 5.15073ZM20.0001 6.44255C27.3919 6.44255 33.4058 12.3181 33.4058 19.5399V23.6664C31.159 23.736 28.9967 24.276 26.9727 25.288C26.2478 25.6499 25.5591 26.0662 24.911 26.5302C25.4256 25.0265 25.6975 23.4383 25.6975 21.8221C25.6975 17.5749 23.8302 13.5177 20.5745 10.6907L20.0001 10.1923L19.4259 10.6907C16.1696 13.5177 14.302 17.5746 14.302 21.8221C14.302 23.4383 14.5742 25.0265 15.0885 26.5302C14.4407 26.0662 13.752 25.6503 13.0275 25.288C11.0039 24.2763 8.8411 23.736 6.5944 23.6668V19.5399C6.5944 12.3181 12.6083 6.44255 20.0001 6.44255ZM13.1955 6.3378L11.626 3.68252C12.987 2.99386 14.4465 2.46807 15.9791 2.13016L16.5241 5.15107C15.3568 5.42038 14.2421 5.82114 13.1955 6.3378ZM6.5944 40.4601V34.4981C6.9963 34.7488 7.4095 34.9843 7.8375 35.1982C10.0082 36.2832 12.3378 36.8333 14.7609 36.8333C16.2488 36.8333 17.7153 36.6208 19.1354 36.2052V40.0151C14.773 40.1574 10.615 41.3715 6.9686 43.5371C6.7207 42.5345 6.5944 41.5039 6.5944 40.4601ZM5.0927 50.7616C4.52 49.9722 4.008 49.1383 3.5703 48.2617C7.779 44.2166 13.255 41.9111 19.1354 41.7046V44.538C13.8036 44.7566 8.7771 46.9838 5.0927 50.7616ZM20.8647 44.538V41.7046C26.7448 41.9111 32.2208 44.2166 36.43 48.2617C35.9918 49.1386 35.4802 49.9726 34.9068 50.7623C31.2227 46.9838 26.1962 44.7566 20.8647 44.538ZM20.0001 0C8.9719 0 0 8.76534 0 19.5399V40.4601C0 51.2347 8.9719 60 20.0001 60C31.0283 60 40 51.2347 40 40.4601V19.5399C40 8.76534 31.0283 0 20.0001 0Z" fill="#004643"/>
</svg>
