<svg width="272" height="345" viewBox="0 0 272 345" fill="none" xmlns="http://www.w3.org/2000/svg">
<g filter="url(#filter0_d_2_23)">
<rect x="6.34149" y="73.189" width="187.725" height="251.551" rx="10.91" transform="rotate(-11.1164 6.34149 73.189)" fill="#E6A75E"/>
</g>
<rect x="20.2892" y="85.7538" width="165.198" height="221.515" transform="rotate(-11.1164 20.2892 85.7538)" fill="#F1F0E2"/>
<g filter="url(#filter1_d_2_23)">
<path d="M20.5308 86.9819L182.629 55.1312C182.629 55.1312 204.798 213.393 234.031 242.085C210.208 283.116 100.212 294.526 66.4413 301.161C59.0043 250.33 20.5308 86.9819 20.5308 86.9819Z" fill="white"/>
</g>
<path d="M42.7468 122.155L126.252 105.747" stroke="#606060" stroke-width="3.27301"/>
<g filter="url(#filter2_f_2_23)">
<path d="M41.7466 91.1028L165.776 66.7321" stroke="black" stroke-opacity="0.3" stroke-width="1.091"/>
</g>
<path d="M46.1248 139.347L129.63 122.939" stroke="#606060" stroke-width="3.27301"/>
<rect x="146.404" y="97.9604" width="25.03" height="25.03" transform="rotate(-11.1164 146.404 97.9604)" stroke="#606060" stroke-width="3.27301" stroke-linejoin="round"/>
<path d="M155.729 108.296L158.96 112.559L167.729 103.559" stroke="#606060" stroke-width="2.94737" stroke-linecap="round" stroke-linejoin="round"/>
<path d="M51.9167 168.819L135.422 152.411" stroke="#606060" stroke-width="3.27301"/>
<path d="M55.5361 187.239L139.041 170.831" stroke="#606060" stroke-width="3.27301"/>
<rect x="155.816" y="145.853" width="25.03" height="25.03" transform="rotate(-11.1164 155.816 145.853)" stroke="#606060" stroke-width="3.27301" stroke-linejoin="round"/>
<path fill-rule="evenodd" clip-rule="evenodd" d="M75.3934 47.0464C75.6125 50.9551 73.2293 54.9443 69.3879 55.6991L39.7289 61.5268C34.999 62.4562 31.918 67.044 32.8474 71.7739L36.0833 88.2424C36.4318 90.0161 38.1523 91.1715 39.926 90.823L166.129 66.0254C167.902 65.6768 169.058 63.9564 168.709 62.1827L165.473 45.7142C164.544 40.9842 159.956 37.9033 155.226 38.8327L129.251 43.9365C125.41 44.6913 121.695 41.9005 120.418 38.1995C117.796 30.595 111.07 20.0872 94.1318 23.4154C77.194 26.7436 74.9433 39.0152 75.3934 47.0464ZM96.885 43.9193C99.9369 43.3196 101.925 40.3594 101.325 37.3074C100.726 34.2554 97.7653 32.2674 94.7133 32.8671C91.6614 33.4668 89.6734 36.4271 90.2731 39.479C90.8728 42.531 93.833 44.519 96.885 43.9193Z" fill="url(#paint0_linear_2_23)"/>
<g filter="url(#filter3_f_2_23)">
<rect x="37.1625" y="67.7711" width="122.647" height="6.2575" rx="3.12875" transform="rotate(-11.1164 37.1625 67.7711)" fill="white" fill-opacity="0.2"/>
</g>
<g filter="url(#filter4_d_2_23)">
<path d="M144.66 322.389C145.252 322.733 149.851 317.861 149.851 317.861L149.033 313.655L146.019 315.636C146.019 315.636 143.865 321.927 144.66 322.389Z" fill="#505050"/>
<path d="M149.691 318.137L163.189 305.479L161.076 301.177L154.944 297.617L150.161 297.914C148.883 302.467 146.234 312.441 145.859 315.912C147.747 316.189 149.2 317.511 149.691 318.137Z" fill="#FFDABF"/>
<path d="M163.19 305.479L159.803 302.488L154.438 299.373L150.161 297.914L224.924 169.16L237.953 176.725L163.19 305.479Z" fill="#F476A3"/>
<path d="M154.438 299.373L150.161 297.914L224.924 169.16L228.756 171.385L154.438 299.373Z" fill="#FFA8C7"/>
<path d="M163.19 305.479L159.803 302.488L234.121 174.5L237.953 176.725L163.19 305.479Z" fill="#D2638B"/>
<rect x="235.283" y="181.323" width="15.0659" height="17.7246" rx="1.54515" transform="rotate(-149.858 235.283 181.323)" fill="#FDC56D"/>
<rect x="236.05" y="181.769" width="16.8384" height="8.86229" rx="1.54515" transform="rotate(-149.858 236.05 181.769)" fill="#CECECE"/>
<rect x="236.939" y="180.236" width="16.8384" height="1.77246" rx="0.886229" transform="rotate(-149.858 236.939 180.236)" fill="#EAEAEA"/>
<rect x="238.719" y="177.17" width="16.8384" height="1.77246" rx="0.886229" transform="rotate(-149.858 238.719 177.17)" fill="#EAEAEA"/>
</g>
<defs>
<filter id="filter0_d_2_23" x="7.14722" y="38.8917" width="231.091" height="282.505" filterUnits="userSpaceOnUse" color-interpolation-filters="sRGB">
<feFlood flood-opacity="0" result="BackgroundImageFix"/>
<feColorMatrix in="SourceAlpha" type="matrix" values="0 0 0 0 0 0 0 0 0 0 0 0 0 0 0 0 0 0 127 0" result="hardAlpha"/>
<feOffset dy="2.18201"/>
<feGaussianBlur stdDeviation="0.545502"/>
<feComposite in2="hardAlpha" operator="out"/>
<feColorMatrix type="matrix" values="0 0 0 0 0 0 0 0 0 0 0 0 0 0 0 0 0 0 0.25 0"/>
<feBlend mode="normal" in2="BackgroundImageFix" result="effect1_dropShadow_2_23"/>
<feBlend mode="normal" in="SourceGraphic" in2="effect1_dropShadow_2_23" result="shape"/>
</filter>
<filter id="filter1_d_2_23" x="15.0758" y="50.7672" width="224.41" height="256.94" filterUnits="userSpaceOnUse" color-interpolation-filters="sRGB">
<feFlood flood-opacity="0" result="BackgroundImageFix"/>
<feColorMatrix in="SourceAlpha" type="matrix" values="0 0 0 0 0 0 0 0 0 0 0 0 0 0 0 0 0 0 127 0" result="hardAlpha"/>
<feOffset dy="1.091"/>
<feGaussianBlur stdDeviation="2.72751"/>
<feComposite in2="hardAlpha" operator="out"/>
<feColorMatrix type="matrix" values="0 0 0 0 0 0 0 0 0 0 0 0 0 0 0 0 0 0 0.05 0"/>
<feBlend mode="normal" in2="BackgroundImageFix" result="effect1_dropShadow_2_23"/>
<feBlend mode="normal" in="SourceGraphic" in2="effect1_dropShadow_2_23" result="shape"/>
</filter>
<filter id="filter2_f_2_23" x="40.5504" y="65.1058" width="126.422" height="27.6232" filterUnits="userSpaceOnUse" color-interpolation-filters="sRGB">
<feFlood flood-opacity="0" result="BackgroundImageFix"/>
<feBlend mode="normal" in="SourceGraphic" in2="BackgroundImageFix" result="shape"/>
<feGaussianBlur stdDeviation="0.545502" result="effect1_foregroundBlur_2_23"/>
</filter>
<filter id="filter3_f_2_23" x="27.8875" y="34.8492" width="140.102" height="48.3371" filterUnits="userSpaceOnUse" color-interpolation-filters="sRGB">
<feFlood flood-opacity="0" result="BackgroundImageFix"/>
<feBlend mode="normal" in="SourceGraphic" in2="BackgroundImageFix" result="shape"/>
<feGaussianBlur stdDeviation="4.90951" result="effect1_foregroundBlur_2_23"/>
</filter>
<filter id="filter4_d_2_23" x="142.484" y="158.997" width="109.133" height="173.41" filterUnits="userSpaceOnUse" color-interpolation-filters="sRGB">
<feFlood flood-opacity="0" result="BackgroundImageFix"/>
<feColorMatrix in="SourceAlpha" type="matrix" values="0 0 0 0 0 0 0 0 0 0 0 0 0 0 0 0 0 0 127 0" result="hardAlpha"/>
<feOffset dx="3" dy="5"/>
<feGaussianBlur stdDeviation="2.5"/>
<feComposite in2="hardAlpha" operator="out"/>
<feColorMatrix type="matrix" values="0 0 0 0 0 0 0 0 0 0 0 0 0 0 0 0 0 0 0.15 0"/>
<feBlend mode="normal" in2="BackgroundImageFix" result="effect1_dropShadow_2_23"/>
<feBlend mode="normal" in="SourceGraphic" in2="effect1_dropShadow_2_23" result="shape"/>
</filter>
<linearGradient id="paint0_linear_2_23" x1="94.4614" y1="34.8295" x2="103.027" y2="78.4242" gradientUnits="userSpaceOnUse">
<stop stop-color="#777575"/>
<stop offset="1" stop-color="#2E2E2E"/>
</linearGradient>
</defs>
</svg>
